<svg xmlns="http://www.w3.org/2000/svg"
 xmlns:xlink="http://www.w3.org/1999/xlink"
  viewBox="0 0 336.17 212.35"><defs>
  <style>.cls-1{fill:#231916;}.cls-2{fill:url(#名称未設定グラデーション_345);}</style>
  <linearGradient id="名称未設定グラデーション_345" x1="190.37" y1="-43.64" x2="280.79" y2="0.55"
   gradientTransform="translate(-23.7 113.19) rotate(-3.48)" 
   gradientUnits="userSpaceOnUse"><stop offset="0" stop-color="#62c3d2"/>
   <stop offset="0.15" stop-color="#00afce"/><stop offset="0.65" stop-color="#0090d5"/>
   <stop offset="1" stop-color="#003f97"/></linearGradient></defs><g id="Layer_2" data-name="Layer 2">
   <g id="レイヤー_1" data-name="レイヤー 1">
   <path class="cls-1" d="M120.58,82.24H95.74c-3.67,0-3.49,3.26,0,3.26a15,15,0,0,1,6.15.89q2.17,1,2.17,4.26a11.22,11.22,0,0,1-.61,3.61c-.42,1.21-.86,2.35-1.34,3.4L81.4,140.91,77,102q-.45-4-.65-6.71c-.09-1.1-.08-2-.13-2.57-.89-10.29-10.46-10.5-27.44-10.5,4.66.58,6.24,2.76,7.55,5,1.44,3.07,2.08,6,2.08,11.41a5.54,5.54,0,0,1-.2,1.24L38.32,141.4,33.06,94.74c0-.52-.07-.93-.09-1.21a8.26,8.26,0,0,1,0-.88q0-4.43,3-6a11.53,11.53,0,0,1,5.13-1,1.73,1.73,0,1,0,0-3.45H1.26C-.91,82.24-.46,85,4.07,85.5q5.91.59,7.67,2.4c1.17,1.22,2.06,4.12,2.66,8.72l10.34,77.23h3.84l31-64.73,8.06,64.73h3.84l38-78.59q2.87-5.92,6.05-8.14a10.69,10.69,0,0,1,5.07-1.62c4.58,0,10.79,1.44,7.68,6.59C132.18,87.22,129.14,82.24,120.58,82.24Z"/><path class="cls-1" d="M333.69,99.67A9,9,0,0,0,328,97.25a7.25,7.25,0,0,0-5.74,2.28,7.83,7.83,0,0,0-1.09,10.09,9.4,9.4,0,0,0,2.05,2.22l1,.78a7.22,7.22,0,0,1,2.11,2.32,4.4,4.4,0,0,1,.58,2.47c-1.05,10.88-9.32,35.32-19.27,46.89,0,0,0-23.63-7-41.59-5.2-13.48-25.81-13.65-26.44,2.47,2.06-4.23,8.79-2.26,11.3,3,4.21,8.84,9.19,30,7.42,49.3-.31,3.41-.27,6.3-3.48,9.89-1.74,2-21.45,23.65-46.62,14.2a44.92,44.92,0,0,1-4.91-3.2,13.68,13.68,0,0,0-6.85-2.64,7.89,7.89,0,0,0-5.35,1.8,6.74,6.74,0,0,0-2.54,5.31,8,8,0,0,0,2.28,5.87,9.44,9.44,0,0,0,6.2,2.81c28.17,3.7,42.7-5.85,54.42-15.1,21.88-17.27,48.43-59.37,50-89.52C336.31,103.62,335.45,101.21,333.69,99.67Z"/><path class="cls-1" d="M167.3,142.71l5.63-20.23,2.15-7.3s.88-3.78,3.61-4.85c-15.71-1-16.58,3.57-18.88,9.3a17.35,17.35,0,0,0-2.53-6.11c-1.6-2-5.84-2.94-9.22-2.94-8.32,0-15.5,3.61-22.5,12.27a57.35,57.35,0,0,0-12,33.58q0,9.49,4.55,13.46a14.71,14.71,0,0,0,9.82,4,16.92,16.92,0,0,0,10.63-3.7,37.22,37.22,0,0,0,8.29-9q1.56-2.28,2.31-3.45c.21-.33.35-.55.44-.71A46.51,46.51,0,0,0,148,165a8,8,0,0,0,2.86,6.7,9.45,9.45,0,0,0,5.92,2.27,13.76,13.76,0,0,0,9.91-4.48c5.76-5.84,10-17.81,10-17.81-.69.91-4.1,5.4-5.14,6.72s-1.78,2.22-2.21,2.7a17.72,17.72,0,0,1-2.47,2.5,3.62,3.62,0,0,1-2.28.88,1.75,1.75,0,0,1-1.17-.45,2.13,2.13,0,0,1-.52-1.63,43.94,43.94,0,0,1,1.76-9.56Q165.45,149.34,167.3,142.71Zm-16.57,4q-8.37,17.63-15,17.56a4.86,4.86,0,0,1-4.19-2.34,9.64,9.64,0,0,1-1.59-5.53q0-8.07,6.69-23.21,7.59-17.1,14.81-17.1a4.56,4.56,0,0,1,4.61,3,11.6,11.6,0,0,1,.65,4.23Q156.71,132,150.73,146.74Z"/><path class="cls-2" d="M278.11,42.74c0-8.25-7.66-9.35-12-12.37s-7.38-7.07-8.25-10.94c-.91-4.11.09-10,2.15-13.09,6.77-10,17.57-5.72,21.17-3.47s7.74,7.7,9.26,13.12c15.46,55.33-56.9,131.06-69.69,144.79,0,0-26.35,27.89-21.77,11.23,1.64-7.23,1.66-30.44,1.66-30.44-.35-9.84-4.51-76.4-18.73-87.8-6-4.82-15.4-6.58-22.18,2.18,2.42-27.89,29.56-27.9,41-18.85,19.62,15.54,22.77,93.22,24,109.38C241.62,126.86,278,80.82,278.11,42.74Z"/></g></g></svg>